<svg xmlns="http://www.w3.org/2000/svg" viewBox="0 0 64 64">
  <!-- Background circle -->
  <circle cx="32" cy="32" r="30" fill="#2196F3" />
  
  <!-- Soul/Health symbol - stylized S with a heart -->
  <path d="M32 16c-8 0-14 4-14 9s6 7 14 7 14-2 14-7-6-9-14-9z" fill="white" />
  <path d="M32 48c8 0 14-4 14-9s-6-7-14-7-14 2-14 7 6 9 14 9z" fill="white" />
  
  <!-- Heart in the center -->
  <path d="M32 40c-.8 0-1.5-.3-2.1-.8-4.9-4.5-9-8.2-9-12.3 0-3.3 2.7-6 6-6 1.9 0 3.7.9 4.8 2.3l.3.4.3-.4c1.1-1.4 2.9-2.3 4.8-2.3 3.3 0 6 2.7 6 6 0 4.1-4.1 7.8-9 12.3-.6.5-1.3.8-2.1.8z" fill="#FF5252" />
</svg>