<svg xmlns="http://www.w3.org/2000/svg" viewBox="0 0 240 60">
  <!-- Background shape -->
  <rect x="5" y="5" width="50" height="50" rx="10" fill="#4f46e5" />
  
  <!-- Heart shape -->
  <path d="M30 45c-1 0-2-.4-2.8-1.1-6.6-6-12-10.9-12-16.4 0-4.4 3.6-8 8-8 2.5 0 4.9 1.2 6.4 3.1l.4.5.4-.5c1.5-1.9 3.9-3.1 6.4-3.1 4.4 0 8 3.6 8 8 0 5.5-5.4 10.4-12 16.4-.8.7-1.8 1.1-2.8 1.1z" fill="white" />
  
  <!-- Pulse line -->
  <path d="M14 30h8l4-8 4 16 4-8h12" stroke="white" stroke-width="3" fill="none" stroke-linecap="round" stroke-linejoin="round" />
  
  <!-- Text "SoulSpace" -->
  <text x="65" y="35" font-family="Arial, sans-serif" font-size="24" font-weight="bold" fill="#4f46e5">SoulSpace</text>
  
  <!-- Text "Health" -->
  <text x="65" y="55" font-family="Arial, sans-serif" font-size="18" fill="#06b6d4">Health</text>
</svg>